<?xml version="1.0" encoding="UTF-8" standalone="no"?>
<!-- Created with Inkscape (http://www.inkscape.org/) -->

<svg
   xmlns:dc="http://purl.org/dc/elements/1.1/"
   xmlns:cc="http://creativecommons.org/ns#"
   xmlns:rdf="http://www.w3.org/1999/02/22-rdf-syntax-ns#"
   xmlns:svg="http://www.w3.org/2000/svg"
   xmlns="http://www.w3.org/2000/svg"
   xmlns:sodipodi="http://sodipodi.sourceforge.net/DTD/sodipodi-0.dtd"
   xmlns:inkscape="http://www.inkscape.org/namespaces/inkscape"
   width="90.365685mm"
   height="31.570112mm"
   viewBox="0 0 320.19337 111.8626"
   id="svg3549"
   version="1.1"
   inkscape:version="0.91 r13725"
   sodipodi:docname="logo.svg">
  <defs
     id="defs3551">
    <clipPath
       clipPathUnits="userSpaceOnUse"
       id="clipPath3415">
      <path
         d="M 0,0 612,0 612,792 0,792 0,0 Z"
         id="path3417"
         inkscape:connector-curvature="0" />
    </clipPath>
  </defs>
  <sodipodi:namedview
     id="base"
     pagecolor="#ffffff"
     bordercolor="#666666"
     borderopacity="1.0"
     inkscape:pageopacity="0.0"
     inkscape:pageshadow="2"
     inkscape:zoom="1"
     inkscape:cx="202.09473"
     inkscape:cy="-5.087423"
     inkscape:document-units="pt"
     inkscape:current-layer="layer1"
     showgrid="false"
     fit-margin-top="0"
     fit-margin-left="0"
     fit-margin-right="0"
     fit-margin-bottom="0"
     inkscape:window-width="1278"
     inkscape:window-height="781"
     inkscape:window-x="0"
     inkscape:window-y="0"
     inkscape:window-maximized="0" />
  <metadata
     id="metadata3554">
    <rdf:RDF>
      <cc:Work
         rdf:about="">
        <dc:format>image/svg+xml</dc:format>
        <dc:type
           rdf:resource="http://purl.org/dc/dcmitype/StillImage" />
        <dc:title></dc:title>
      </cc:Work>
    </rdf:RDF>
  </metadata>
  <g
     inkscape:label="Calque 1"
     inkscape:groupmode="layer"
     id="layer1"
     transform="translate(-230.97474,-532.21264)">
    <g
       id="g3523"
       transform="matrix(2.4228679,0,0,-2.4228679,43.111866,1875.4506)">
      <g
         id="g3411">
        <g
           clip-path="url(#clipPath3415)"
           id="g3413">
          <g
             transform="translate(192.2622,534.4438)"
             id="g3419">
            <path
               inkscape:connector-curvature="0"
               id="path3421"
               style="fill:#231f20;fill-opacity:1;fill-rule:nonzero;stroke:none"
               d="m 0,0 -10.669,0 2.059,8.682 -3.803,0 -2.06,-8.682 -3.486,0 -0.158,-0.676 3.486,0 -4.596,-19.224 c -0.263,-1.071 -0.58,-2.198 -0.58,-3.438 0,-1.523 0.951,-2.875 3.063,-2.875 3.803,0 5.704,5.355 5.916,5.975 l -0.528,0.226 c -0.37,-0.902 -1.849,-4.397 -3.645,-4.397 -0.739,0 -1.056,0.451 -1.056,1.352 0,0.564 0.105,1.128 0.264,1.748 l 4.912,20.633 6.972,0 -4.648,-19.224 c -0.264,-1.014 -0.581,-2.254 -0.581,-3.326 0,-1.578 0.951,-2.987 3.117,-2.987 3.802,0 5.704,5.355 5.915,5.975 l -0.528,0.226 c -0.37,-0.846 -1.901,-4.397 -3.592,-4.397 -0.95,0 -1.109,0.563 -1.109,1.409 0,0.564 0.106,1.071 0.264,1.691 L 0,0 Z" />
          </g>
          <g
             transform="translate(166.856,510.0345)"
             id="g3423">
            <path
               inkscape:connector-curvature="0"
               id="path3425"
               style="fill:#231f20;fill-opacity:1;fill-rule:nonzero;stroke:none"
               d="m 0,0 c -0.951,0 -1.162,0.563 -1.162,1.297 0,0.563 0.105,1.183 0.264,1.803 l 3.38,13.981 c 0.317,1.297 0.634,2.424 0.634,3.946 0,1.691 -1.056,3.833 -4.067,3.833 -3.433,0 -5.282,-2.988 -6.021,-4.284 l 0.898,3.833 -7.237,0 -0.211,-0.676 3.433,0 -6.021,-25.03 3.803,0 4.12,16.969 c 0.95,3.833 3.169,7.779 5.704,7.779 1.532,0 2.007,-1.071 2.007,-2.086 0,-0.902 -0.264,-1.86 -0.528,-2.987 L -4.331,4.51 C -4.543,3.608 -4.912,2.03 -4.912,0.958 c 0,-1.522 0.95,-2.762 3.063,-2.762 3.803,0 5.705,5.355 5.969,5.975 L 3.592,4.397 C 3.063,3.27 1.637,0 0,0" />
          </g>
          <g
             transform="translate(145.1999,513.1347)"
             id="g3427">
            <path
               inkscape:connector-curvature="0"
               id="path3429"
               style="fill:#231f20;fill-opacity:1;fill-rule:nonzero;stroke:none"
               d="m 0,0 5.123,21.309 -3.802,0 -0.635,-2.762 c -0.158,0.564 -0.633,3.326 -4.014,3.326 -4.489,0 -6.708,-3.946 -8.134,-7.892 -0.845,-2.368 -2.588,-8.287 -2.693,-12.29 -0.159,-4.284 1.795,-6.595 4.859,-6.595 2.905,0 4.753,3.1 5.44,4.679 -0.053,-0.226 -0.158,-1.072 -0.158,-1.692 -0.053,-1.578 1.003,-2.987 3.063,-2.987 3.962,0 5.705,5.412 5.916,5.975 L 4.437,1.297 C 4.067,0.395 2.641,-3.1 0.792,-3.1 0,-3.1 -0.317,-2.537 -0.264,-1.578 -0.264,-1.184 -0.158,-0.62 0,0 m -3.011,3.721 c -1.215,-4.115 -3.116,-7.273 -5.387,-7.273 -1.585,0 -2.324,1.015 -2.272,3.27 0.159,5.017 2.906,13.981 3.539,15.954 1.057,3.326 2.536,5.242 4.437,5.242 1.743,0 2.589,-1.634 2.536,-3.495 C -0.264,14.657 -1.479,9.132 -3.011,3.721" />
          </g>
          <g
             transform="translate(125.234,510.0345)"
             id="g3431">
            <path
               inkscape:connector-curvature="0"
               id="path3433"
               style="fill:#231f20;fill-opacity:1;fill-rule:nonzero;stroke:none"
               d="m 0,0 c -0.792,0 -1.056,0.451 -1.056,1.353 0,0.564 0.053,1.071 0.211,1.747 l 9.824,40.364 -7.342,0 -0.158,-0.677 3.433,0 L -4.278,4.51 C -4.542,3.382 -4.859,2.198 -4.859,0.958 c 0,-1.409 0.792,-2.762 2.957,-2.762 3.909,0 5.811,5.186 6.075,5.975 L 3.645,4.397 C 3.275,3.438 1.69,0 0,0" />
          </g>
          <g
             transform="translate(192.1037,544.0274)"
             id="g3435">
            <path
               inkscape:connector-curvature="0"
               id="path3437"
               style="fill:#231f20;fill-opacity:1;fill-rule:nonzero;stroke:none"
               d="m 0,0 c -1.268,0 -2.166,-1.071 -2.166,-2.593 0,-1.24 0.793,-2.255 1.955,-2.255 1.215,0 2.165,1.071 2.165,2.537 C 1.954,-1.015 1.162,0 0,0" />
          </g>
          <g
             transform="translate(204.5691,535.0076)"
             id="g3439">
            <path
               inkscape:connector-curvature="0"
               id="path3441"
               style="fill:#231f20;fill-opacity:1;fill-rule:nonzero;stroke:none"
               d="m 0,0 c -4.543,0 -6.919,-3.439 -8.293,-7.836 -0.898,-2.819 -2.323,-7.385 -2.323,-12.458 0,-2.593 1.109,-6.483 5.915,-6.483 5.018,0 7.183,6.708 7.5,7.497 l -0.686,0.339 c -0.687,-1.748 -2.536,-6.37 -5.757,-6.37 -2.061,0 -3.17,1.691 -3.17,4.848 0,4.566 1.321,9.301 2.483,13.022 1.426,4.566 2.324,6.708 4.436,6.708 1.374,0 2.219,-0.676 2.219,-1.578 0,-1.297 -0.792,-1.917 -0.792,-3.1 0,-1.072 0.739,-1.861 1.69,-1.861 1.162,0 1.901,1.015 1.901,2.65 C 5.123,-2.931 4.226,0 0,0" />
          </g>
          <g
             transform="translate(114.406,510.0345)"
             id="g3443">
            <path
               inkscape:connector-curvature="0"
               id="path3445"
               style="fill:#231f20;fill-opacity:1;fill-rule:nonzero;stroke:none"
               d="m 0,0 c -0.687,0 -1.109,0.451 -1.109,1.353 0,0.451 0.106,1.127 0.264,1.747 l 4.965,20.633 4.067,0 0.158,0.676 -4.066,0 2.112,8.682 -3.803,0 -2.113,-8.682 -3.116,0 -0.158,-0.676 3.116,0 L -4.278,4.51 C -4.543,3.438 -4.859,2.367 -4.859,0.958 c 0,-1.353 0.792,-2.762 2.957,-2.762 4.015,0 5.758,5.242 6.075,5.975 L 3.645,4.397 C 3.275,3.495 1.743,0 0,0" />
          </g>
          <g
             transform="translate(81.8691,539.912)"
             id="g3447">
            <path
               inkscape:connector-curvature="0"
               id="path3449"
               style="fill:#231f20;fill-opacity:1;fill-rule:nonzero;stroke:none"
               d="m 0,0 -1.268,0 3.011,12.571 0.528,0 c 1.374,0 1.69,-0.169 1.268,-2.706 l 0.317,0 0.739,3.101 -7.077,0 -0.74,-3.101 0.317,0 c 0.792,2.143 1.109,2.706 2.536,2.706 l 0.633,0 L -2.747,0 l -1.161,0 -0.106,-0.395 3.909,0 L 0,0 Z" />
          </g>
          <g
             transform="translate(84.7215,539.5175)"
             id="g3451">
            <path
               inkscape:connector-curvature="0"
               id="path3453"
               style="fill:#231f20;fill-opacity:1;fill-rule:nonzero;stroke:none"
               d="M 0,0 1.32,0 2.694,5.637 C 3.063,7.103 3.856,8.4 4.701,8.4 5.229,8.4 5.388,8.005 5.388,7.723 5.388,7.385 5.282,6.934 5.176,6.539 L 4.12,2.199 C 4.067,2.029 3.908,1.297 3.908,0.902 c 0,-0.564 0.265,-1.071 1.004,-1.071 1.373,0 1.954,1.691 2.113,2.086 L 6.761,2.029 C 6.602,1.635 6.127,0.564 5.546,0.564 c -0.211,0 -0.317,0.113 -0.317,0.451 0,0.282 0.106,0.845 0.159,1.071 l 1.056,4.228 c 0.106,0.451 0.211,0.902 0.211,1.409 0,0.62 -0.37,1.353 -1.426,1.353 -1.109,0 -1.849,-1.071 -2.06,-1.409 l 1.373,5.694 -2.218,0 -0.106,-0.395 0.898,0 L 0,0 Z" />
          </g>
          <g
             transform="translate(94.4402,539.3483)"
             id="g3455">
            <path
               inkscape:connector-curvature="0"
               id="path3457"
               style="fill:#231f20;fill-opacity:1;fill-rule:nonzero;stroke:none"
               d="M 0,0 C 1.743,0 2.588,2.142 2.747,2.593 L 2.43,2.762 C 2.113,1.973 1.426,0.677 0.264,0.677 c -0.687,0 -1.056,0.507 -1.056,1.409 0,0.62 0.105,1.24 0.211,1.748 1.637,0.394 4.384,1.86 4.384,3.889 0,0.902 -0.475,1.522 -1.585,1.522 C 0.158,9.245 -2.06,5.694 -2.06,2.311 -2.06,1.071 -1.585,0 0,0 m 2.218,8.851 c 0.476,0 0.634,-0.226 0.634,-0.677 0,-1.466 -1.426,-3.326 -3.328,-3.89 C 0,6.652 1.215,8.851 2.218,8.851" />
          </g>
        </g>
      </g>
      <g
         transform="translate(108.7014,554.4)"
         id="g3459">
        <path
           inkscape:connector-curvature="0"
           id="path3461"
           style="fill:#231f20;fill-opacity:1;fill-rule:nonzero;stroke:none"
           d="m 0,0 -28.681,-44.986 -2.324,0 -0.159,-0.677 7.184,0 0.158,0.677 -4.014,0 11.001,17.25 10.266,0 -1.829,-17.25 -3.381,0 -0.158,-0.677 10.458,0 0.159,0.677 -2.958,0 L 0.476,0 0,0 Z m -6.491,-27.003 -9.877,0 11.72,18.378 0.106,0 -1.949,-18.378 z" />
      </g>
    </g>
  </g>
</svg>
