<?xml version="1.0" encoding="UTF-8"?>
<svg width="81px" height="12px" viewBox="0 0 81 12" version="1.1" xmlns="http://www.w3.org/2000/svg" xmlns:xlink="http://www.w3.org/1999/xlink">
    <!-- Generator: Sketch 50 (54983) - http://www.bohemiancoding.com/sketch -->
    <title>Combined Shape</title>
    <desc>Created with Sketch.</desc>
    <defs>
        <path d="M9.95636656,0.194805714 C10.5962311,0.211908571 10.9243652,0.23034 11.3215456,0.23034 C11.7194105,0.23034 12.1514548,0.212574286 12.583502,0.194805714 C12.6867275,0.300757143 12.6867275,0.674548571 12.583502,0.781157143 C11.6845466,0.9233 11.3092407,1.59980857 10.8840334,2.43294 L9.62071082,4.90404 L11.8315239,9.60932571 L11.9108243,9.60932571 L15.1935462,2.30856571 C15.6030315,1.34710571 15.5736384,0.869337143 14.4504561,0.781157143 C14.3465459,0.674548571 14.3465459,0.301414286 14.4504561,0.194805714 C15.2625925,0.211908571 15.763683,0.23034 16.1615479,0.23034 C16.5594128,0.23034 16.991457,0.212574286 17.6825921,0.194805714 C17.7865023,0.300757143 17.7865023,0.674548571 17.6825921,0.781157143 C16.541637,0.9233 16.3433892,1.60178286 15.9838082,2.43294 L11.8923669,11.4927543 C11.7713656,11.7592771 11.6674554,11.9014229 11.4780954,11.9014229 C11.305139,11.9014229 11.1718357,11.7573029 11.0802305,11.4927543 L8.75525311,6.33602571 L6.20604885,11.4927543 C6.10282328,11.7592771 5.98113738,11.9014229 5.79109279,11.9014229 C5.61882098,11.9014229 5.49713803,11.7592771 5.39391246,11.4927543 L1.63402495,2.39806286 C1.10695721,1.13652 1.07209269,0.870654286 0.0870021147,0.781814286 C-0.0169075092,0.675202857 -0.0339978984,0.302071429 0.0699117049,0.195462857 C0.882047508,0.212565714 1.17600226,0.231 1.86713793,0.231 C2.54118305,0.231 2.9732282,0.213234286 3.78604918,0.195462857 C3.88995639,0.301414286 3.88995639,0.675202857 3.78604918,0.781814286 C2.6970477,0.905531429 2.65056167,1.18653429 3.08465705,2.20261143 L6.24911607,9.60998 L6.32841639,9.60998 L8.2589459,5.57396571 L6.80216164,2.39806286 C6.22314,1.13652 6.08504754,0.888422857 5.34127279,0.781814286 C5.23804721,0.675202857 5.22027443,0.302071429 5.32418459,0.195462857 C5.87723016,0.212565714 6.17118492,0.231 6.86232,0.231 C7.53636689,0.231 7.81323049,0.213234286 8.4353223,0.195462857 C8.53922951,0.301414286 8.53922951,0.675202857 8.4353223,0.781814286 C7.70932033,0.888422857 7.77836656,1.18982571 8.2521118,2.20261143 L9.10252918,3.9972 L9.17841246,4.07682857 L10.0944561,2.30922 C10.6283597,1.27932286 10.6994567,0.888422857 9.95636656,0.781814286 C9.85245639,0.673888571 9.85245639,0.300757143 9.95636656,0.194805714 Z M19.6855114,9.423672 C19.6855114,10.971483 19.8695229,11.046798 20.8901943,11.120733 C20.9908057,11.232675 20.9908057,11.624463 20.8901943,11.736402 C20.1706943,11.718444 19.7523657,11.699091 19.0328657,11.699091 C18.2961543,11.699091 17.8612771,11.717745 17.1583257,11.736402 C17.0583771,11.624463 17.0583771,11.232675 17.1583257,11.120733 C18.1789971,11.027451 18.3636686,10.971483 18.3636686,9.423672 L18.3636686,5.394534 C18.3636686,3.846723 18.1796571,3.772098 17.1583257,3.697473 C17.0583771,3.585534 17.0583771,3.193743 17.1583257,3.081804 C17.8778257,3.100458 18.2961543,3.119115 19.0163171,3.119115 C19.7523657,3.119115 20.1879057,3.101157 20.8908571,3.081804 C20.9914686,3.193743 20.9914686,3.585534 20.8908571,3.697473 C19.8701857,3.790755 19.6861743,3.846723 19.6861743,5.394534 L19.6861743,9.423672 L19.6855114,9.423672 Z M22.321102,3.698163 C22.216159,3.586224 22.216159,3.194436 22.321102,3.082494 C23.059204,3.101148 23.515825,3.119808 24.289369,3.119808 C24.939901,3.119808 25.220683,3.101847 25.976158,3.082494 C26.081107,3.194436 26.081107,3.586224 25.976158,3.698163 C25.132417,3.791445 24.97465,3.847416 24.97465,5.395224 L24.97465,7.054974 C25.554289,7.054974 26.06929,6.760614 26.819899,5.86095 C28.173082,4.238514 28.348921,3.753441 27.470428,3.697473 C27.364786,3.585534 27.364786,3.193743 27.470428,3.081804 C28.225903,3.100458 28.893808,3.119118 29.40325,3.119118 C29.85988,3.119118 30.15874,3.10116 30.63343,3.081804 C30.73837,3.193743 30.73837,3.585534 30.63343,3.697473 C29.93077,3.734784 29.2858,3.829449 28.752721,4.481049 L27.241771,6.327366 C26.942917,6.663186 26.837275,6.868407 26.837275,7.01766 C26.837275,7.129599 26.907472,7.222881 26.995738,7.33482 L29.59645,10.580385 C29.82652,10.86369 30.247,11.064765 30.721,11.120733 C30.82594,11.232675 30.82594,11.605806 30.721,11.717745 C30.721,11.717745 29.85988,11.699091 29.36779,11.699091 C28.910488,11.699091 28.471243,11.717745 28.278028,11.736405 L28.278028,11.47521 C28.278028,11.232678 28.260664,11.028144 28.014622,10.729638 L26.064424,8.155026 C25.801018,7.781892 25.361077,7.68861 24.97465,7.68861 L24.97465,9.423675 C24.97465,10.971483 25.133113,11.027454 25.976158,11.120736 C26.081107,11.232678 26.081107,11.624466 25.976158,11.736405 C25.220683,11.718447 24.939205,11.699091 24.289369,11.699091 C23.515825,11.699091 23.059204,11.717745 22.321102,11.736405 C22.216159,11.624466 22.216159,11.232678 22.321102,11.120736 C23.39281,11.027454 23.586022,10.971483 23.586022,9.423675 L23.586022,5.394537 C23.586022,3.846729 23.39281,3.790758 22.321102,3.698166 Z M34.6221867,9.423672 C34.6221867,10.971483 34.79392,11.046798 35.74656,11.120733 C35.8404533,11.232675 35.8404533,11.624463 35.74656,11.736402 C35.0750133,11.718444 34.6845867,11.699091 34.01304,11.699091 C33.3254667,11.699091 32.9195733,11.717745 32.2634933,11.736402 C32.1701867,11.624463 32.1701867,11.232675 32.2634933,11.120733 C33.2161067,11.027451 33.38784,10.971483 33.38784,9.423672 L33.38784,5.394534 C33.38784,3.846723 33.2161067,3.772098 32.2634933,3.697473 C32.1701867,3.585534 32.1701867,3.193743 32.2634933,3.081804 C32.9350133,3.100458 33.3254667,3.119115 33.9976,3.119115 C34.6845867,3.119115 35.0910933,3.101157 35.7471733,3.081804 C35.8410933,3.193743 35.8410933,3.585534 35.7471733,3.697473 C34.79456,3.790755 34.6228,3.846723 34.6228,5.394534 L34.6228,9.423672 L34.6221867,9.423672 Z M41.9578875,11.120733 C42.0599125,11.232675 42.0599125,11.624463 41.9578875,11.736402 C41.2227125,11.718444 40.7956542,11.699091 40.0611792,11.699091 C39.3097875,11.699091 38.8651708,11.717745 38.1475833,11.736402 C38.0448875,11.624463 38.0448875,11.232675 38.1475833,11.120733 C39.1895042,11.027451 39.3773667,10.971483 39.3773667,9.423672 L39.3773667,5.394534 C39.3773667,3.846723 39.1895042,3.772098 38.1475833,3.697473 C38.0448875,3.585534 38.0448875,3.193743 38.1475833,3.081804 C38.8820875,3.100458 39.3091167,3.119115 40.0436208,3.119115 C40.505125,3.119115 41.2227125,3.081804 41.8544917,3.081804 C44.2802833,3.081804 44.7937917,4.387767 44.7937917,5.35722 C44.7937917,6.476619 44.0930917,8.266962 41.8031292,8.266962 C41.3761,8.266962 41.0348792,8.193027 40.7274333,8.043081 L40.7274333,9.423672 C40.7274333,10.971483 40.9152667,11.046108 41.9578875,11.120733 Z M40.7274333,7.446072 C41.0686542,7.595322 41.4956833,7.651293 41.8376042,7.651293 C42.8633083,7.651293 43.3072542,6.925758 43.3072542,5.581098 C43.3072542,4.273062 42.7599417,3.69678 41.7524667,3.69678 C40.9321542,3.69678 40.7274333,3.939318 40.7274333,4.536327 L40.7274333,7.446072 Z M48.739296,7.538661 L48.739296,10.336464 C48.739296,10.690941 48.968924,11.157354 49.264072,11.157354 L50.626272,11.157354 C51.658968,11.157354 52.135108,10.224525 52.39716,9.124473 C52.576836,9.068505 52.70852,9.106515 52.855772,9.199101 C52.740972,9.98268 52.560624,11.008104 52.364092,11.773023 C52.364092,11.773023 51.281444,11.735712 50.625628,11.735712 L48.099048,11.735712 C48.099048,11.735712 46.95088,11.754366 46.261996,11.773023 C46.164052,11.661084 46.164052,11.269296 46.261996,11.157354 C47.262884,11.064072 47.442588,11.008104 47.442588,9.460293 L47.442588,5.431155 C47.442588,3.883347 47.262884,3.808719 46.261996,3.734094 C46.164052,3.622155 46.164052,3.230367 46.261996,3.118425 C46.967764,3.137079 48.082836,3.155739 48.082836,3.155739 L51.478004,3.155739 C51.80622,3.155739 51.920376,3.118425 52.150032,3.081804 C52.1831,3.081804 52.199312,3.099762 52.199312,3.137772 C52.231764,3.267678 52.42894,4.722894 52.49446,5.35722 C52.363448,5.431155 52.215524,5.469159 52.051416,5.450502 C51.756268,4.387767 51.542852,3.771408 50.525724,3.771408 L49.262756,3.771408 C48.951396,3.771408 48.73798,3.976629 48.73798,4.293792 L48.73798,6.942342 L49.672732,6.942342 C50.820872,6.924381 50.770948,6.737121 50.804016,5.897571 C50.886392,5.804289 51.18154,5.804289 51.263272,5.897571 C51.24706,6.363984 51.230848,6.699804 51.230848,7.222191 C51.230848,7.744575 51.246416,8.043081 51.263272,8.584125 C51.18154,8.677407 50.886392,8.677407 50.804016,8.584125 C50.770948,7.893831 50.837112,7.539354 49.672732,7.539354 L48.739296,7.539354 L48.739296,7.538661 Z M58.50963,3.082494 C61.44396,3.082494 62.88471,5.022783 62.88471,7.502733 C62.88471,10.766949 60.70587,11.736402 58.75566,11.736402 C57.34968,11.736402 56.7165,11.699091 56.19039,11.699091 C55.41684,11.699091 54.96021,11.717745 54.22212,11.736402 C54.11649,11.624463 54.11649,11.232675 54.22212,11.120733 C55.29453,11.027451 55.48704,10.971483 55.48704,9.423675 L55.48704,5.394534 C55.48704,3.846726 55.29453,3.772098 54.22212,3.697473 C54.11649,3.585534 54.11649,3.193743 54.22212,3.081804 C54.97761,3.100458 55.41684,3.119118 56.17302,3.119118 C56.50662,3.119733 58.05231,3.082494 58.50963,3.082494 Z M58.33311,11.121426 C60.26592,11.121426 61.35639,10.431129 61.35639,7.820586 C61.35639,5.880297 60.9519,3.698163 57.99951,3.698163 C57.31422,3.698163 56.87568,3.810102 56.87568,4.276518 L56.87568,10.281879 C56.87568,10.804263 56.99799,11.121426 58.33311,11.121426 Z M66.6256,9.423672 C66.6256,10.971483 66.8089714,11.046798 67.8302857,11.120733 C67.9302571,11.232675 67.9302571,11.624463 67.8302857,11.736402 C67.1101429,11.718444 66.6918,11.699091 65.9723143,11.699091 C65.2356,11.699091 64.8007143,11.717745 64.0977714,11.736402 C63.9978,11.624463 63.9978,11.232675 64.0977714,11.120733 C65.1190857,11.027451 65.3024571,10.971483 65.3024571,9.423672 L65.3024571,5.394534 C65.3024571,3.846723 65.1190857,3.772098 64.0977714,3.697473 C63.9978,3.585534 63.9978,3.193743 64.0977714,3.081804 C64.8179143,3.100458 65.2356,3.119115 65.9557429,3.119115 C66.6918,3.119115 67.1273429,3.101157 67.8302857,3.081804 C67.9302571,3.193743 67.9302571,3.585534 67.8302857,3.697473 C66.8089714,3.790755 66.6256,3.846723 66.6256,5.394534 L66.6256,9.423672 Z M72.9542634,11.1380343 C73.0573463,11.2446457 73.0573463,11.6177771 72.9542634,11.7243857 C72.3196098,11.7072829 71.4632195,11.6888486 70.760078,11.6888486 C70.0921756,11.6888486 69.869122,11.7066171 69.234439,11.7243857 C69.1320585,11.6177771 69.1320585,11.2446457 69.234439,11.1380343 C69.9803122,11.0847314 70.4963122,10.9748314 70.9492683,9.87714857 L74.7599415,0.634391429 C74.9552195,0.15794 75.0847317,-2.45636844e-14 75.3383122,-2.45636844e-14 C75.5783707,-2.45636844e-14 75.6760098,0.190185714 75.8007512,0.533702857 L79.3158146,10.16144 C79.6331415,11.0761771 80.1938927,11.0761771 80.8584,11.1380343 C80.9614537,11.2446457 80.9614537,11.6177771 80.8584,11.7243857 C80.2237171,11.7072829 79.6067122,11.6888486 78.9035415,11.6888486 C78.2356683,11.6888486 77.2924976,11.7066171 76.6578146,11.7243857 C76.5554341,11.6177771 76.5554341,11.2446457 76.6578146,11.1380343 C77.4741951,11.0774914 78.1814341,11.1419886 77.926478,10.4101971 L76.8808976,7.40802857 L73.314322,7.40802857 C72.9034244,7.40802857 72.8003415,7.47844 72.7142341,7.71008571 L71.7710634,10.2851629 C71.5045756,11.0149743 72.3101268,11.0913114 72.9542634,11.1380343 Z M76.6063024,6.66176286 L74.9436878,1.91896571 L74.909122,1.91896571 L73.1916,6.42551143 C73.1197171,6.61767143 73.2431122,6.66176286 73.6235122,6.66176286 L76.6063024,6.66176286 Z" id="path-1"></path>
    </defs>
    <g id="Page-1" stroke="none" stroke-width="1" fill="none" fill-rule="evenodd">
        <g id="2" transform="translate(-151.000000, -208.000000)">
            <g id="Group" transform="translate(68.000000, 168.000000)">
                <g id="wikipedia" transform="translate(83.000000, 40.000000)">
                    <mask id="mask-2" fill="white">
                        <use xlink:href="#path-1"></use>
                    </mask>
                    <use id="Combined-Shape" fill="#54595D" xlink:href="#path-1"></use>
                </g>
            </g>
        </g>
    </g>
</svg>