<svg viewBox="0 0 300 206" id="shape-CNNE" width="100%" height="100%"><title>CNNE</title><path d="M282.97 67.22l-.002 112.58c0 4.47-2.8 8.235-6.963 9.37-.765.208-1.593.326-2.46.326-3.17 0-6.823-1.58-9.465-6.063-.144-.243-10.6-18.27-26.537-45.742-12.874-22.195-26.187-45.145-26.416-45.537-1.47-2.496-3.512-3.668-5.472-3.136-1.665.455-2.74 1.98-2.74 3.885V179.8c-.002 4.47-2.8 8.236-6.964 9.37-3.56.972-8.56-.027-11.923-5.737-.146-.247-11.297-19.472-24.207-41.73-13.36-23.03-28.503-49.135-28.747-49.55-1.472-2.5-3.535-3.674-5.52-3.133-1.278.35-2.77 1.572-2.77 3.882v85.006c0 5.594-4.917 10.502-10.52 10.502H69.112c-28.704 0-52.058-23.353-52.058-52.057 0-28.706 23.354-52.06 52.06-52.06h22.41V67.22h-22.39C30.952 67.22 0 98.17 0 136.353c0 38.18 30.95 69.13 69.132 69.13h43.57c16.56.01 27.214-9.697 27.192-27.597v-39.43s27.792 47.878 29.067 50.046c17.645 29.97 50.985 17.585 50.988-8.214l-.002-41.833s27.792 47.88 29.066 50.047c17.646 29.97 50.984 17.585 50.986-8.214V67.22h-17.03z"></path><path d="M22.745 136.353c0 25.565 20.8 46.365 46.366 46.365h43.155c2.72 0 4.826-2.586 4.826-4.81l.003-85.007c0-4.47 2.798-8.236 6.963-9.37 3.56-.97 8.56.026 11.923 5.737.18.307 14.71 25.356 28.76 49.58 12.34 21.27 23.992 41.36 24.195 41.703 1.47 2.5 3.535 3.67 5.52 3.13 1.275-.348 2.767-1.573 2.767-3.882V92.9c.002-4.476 2.79-8.243 6.938-9.374 3.54-.964 8.514.038 11.874 5.74.17.29 12.928 22.284 26.434 45.568 12.924 22.28 26.288 45.318 26.52 45.714 1.472 2.5 3.537 3.673 5.52 3.13 1.278-.346 2.77-1.57 2.77-3.88V67.22h-17.11v67.026s-27.792-47.88-29.07-50.048c-17.642-29.97-50.982-17.584-50.982 8.215v41.833s-27.793-47.88-29.068-50.048c-17.645-29.97-50.983-17.584-50.985 8.215v68.563c.01 2.493-1.865 4.666-4.594 4.672H69.294C53.115 165.648 40 152.532 40 136.35s13.115-29.295 29.295-29.295h22.23V89.983H69.11c-25.565 0-46.365 20.8-46.365 46.37z"></path><g><path d="M294.073 2.917l-.312 1.006C291.3 11.85 280.59 37.778 246.146 38.7c-16.796.465-28.37-4.145-46.28-11.265l-1.79-.71c-17.234-6.85-28.36-11.278-44.108-10.866-29.37.785-39.358 21.167-42.342 30.187h6.115c2.865-5.814 5.824-10.133 8.88-12.967 5.728-5.064 13.46-7.6 23.197-7.6 3.437 0 7.204.49 11.313 1.453 4.104.974 7.773 2.05 11.024 3.242l13.46 5.364c4.746 1.894 8.386 3.454 12.067 4.77l1.725.73c7.444 2.83 13.477 4.383 19.678 5.8 6.205 1.416 12.457 2.123 18.758 2.123 13.557 0 26.06-3.686 37.517-11.065 11.454-7.375 19.664-19.038 24.627-34.982h-5.91z"></path><path d="M153.823 10.46c16.786-.448 28.328 4.124 46.188 11.223l1.82.725C219.16 29.295 230.324 33.74 246 33.3c29.51-.788 39.452-21.308 42.41-30.382h-6.18c-2.865 5.815-5.823 10.132-8.88 12.968-5.727 5.062-13.46 7.6-23.194 7.6-3.44 0-7.208-.486-11.316-1.454-4.103-.972-7.772-2.05-11.024-3.24l-13.46-5.366-1.42-.536-11.57-4.394c-7.444-2.83-14.275-4.954-20.477-6.372C174.683.71 168.43 0 162.13 0c-13.556 0-26.06 3.688-37.515 11.065-11.46 7.376-19.666 19.04-24.63 34.982h5.97l.254-.81c2.46-7.925 13.167-33.854 47.613-34.776z"></path></g></svg>