<?xml version="1.0" encoding="utf-8"?>
<!-- Generator: Adobe Illustrator 16.0.0, SVG Export Plug-In . SVG Version: 6.00 Build 0)  -->
<!DOCTYPE svg PUBLIC "-//W3C//DTD SVG 1.1//EN" "http://www.w3.org/Graphics/SVG/1.1/DTD/svg11.dtd">
<svg version="1.1" id="Layer_1" xmlns="http://www.w3.org/2000/svg" xmlns:xlink="http://www.w3.org/1999/xlink" x="0px" y="0px"
	 width="1000px" height="293.844px" viewBox="-194 249.078 1000 293.844" enable-background="new -194 249.078 1000 293.844"
	 xml:space="preserve">
<title>ng-logo</title>
<g>
	<path fill="#FFD520" d="M-194,542.922V249.078H11.045v293.844H-194z M-18.626,513.321V278.677h-145.848v234.644H-18.626z"/>
	<g>
		<path d="M147.288,380.877h-12.686c-16.626-23.508-33.183-46.872-49.666-73.317l0,0v73.317H70.604V278.605h12.684
			c16.628,23.364,33.183,46.585,49.523,72.888l0,0v-72.888h14.334v102.272H147.288z"/>
		<path d="M180.543,340.456c4.085-13.402,8.17-25.873,11.825-41.639l0,0c4.085,15.767,7.741,28.237,11.539,41.639H180.543z
			 M187.279,278.677l-35.405,102.2h15.195l8.886-27.879h30.818l8.026,27.879h19.566l-32.323-102.272H187.71L187.279,278.677z"/>
		<path d="M250.993,380.877v-88.511h-26.877v-13.689h71.097v13.689h-26.875v88.511h-17.559H250.993z"/>
		<path d="M301.162,380.877V278.605h17.415v102.272H301.162L301.162,380.877z"/>
		<path d="M372.544,367.833c-18.275,0-24.726-20.139-24.726-39.705c0-19.566,7.167-36.838,24.726-36.838
			c17.56,0,24.655,17.99,24.655,36.838C397.199,346.978,390.82,367.833,372.544,367.833z M372.544,382.167
			c26.732,0,43.359-23.793,43.359-54.325c0-28.667-18.419-51.458-43.359-51.458s-43.36,22.791-43.36,51.458
			c0,30.96,16.629,54.827,43.36,54.827V382.167z"/>
		<path d="M503.054,380.877h-12.686c-16.626-23.508-33.183-46.872-49.666-73.317l0,0v73.317h-14.333V278.605h12.685
			c16.627,23.364,33.183,46.585,49.522,72.888l0,0v-72.888h14.334v102.272H503.054z"/>
		<path d="M536.523,340.456c4.086-13.402,8.171-25.873,11.825-41.639l0,0c4.085,15.767,7.739,28.237,11.54,41.639h-23.652H536.523z
			 M543.26,278.677l-35.333,102.272h15.194l8.887-27.88h30.818l8.026,27.88h19.566l-32.61-102.272h-14.334H543.26z"/>
		<path d="M595.506,278.605h17.417v88.511h34.616v13.761h-52.033V278.605z"/>
	</g>
	<g>
		<path d="M136.465,466.451v42.212c-9.222,3.894-19.089,6.032-29.096,6.307c-30.102,0-49.096-23.364-49.096-53.464
			c0-27.881,18.994-52.318,49.668-52.318c8.875,0.049,17.523,2.799,24.798,7.883l-5.662,12.112
			c-5.663-3.386-12.109-5.237-18.704-5.374c-18.707,0-31.393,14.764-31.393,37.984s14.333,38.558,29.672,38.558
			c4.229,0.183,8.438-0.68,12.254-2.509v-31.391H136.465L136.465,466.451z"/>
		<path d="M199.177,424.666h-29.241v28.024h28.667v13.761h-28.667v33.039h34.473v13.76h-52.031V410.836h46.729v13.76
			L199.177,424.666z"/>
		<path d="M253.215,500.35c-18.275,0-24.654-20.14-24.654-39.704c0-19.566,7.167-36.839,24.654-36.839
			c17.488,0,24.727,17.989,24.727,36.839C277.941,479.494,271.491,500.35,253.215,500.35z M253.215,514.684
			c26.732,0,43.36-23.795,43.36-54.325c0-28.667-18.419-51.458-43.36-51.458c-24.939,0-43.358,22.791-43.358,51.458
			c0,30.817,16.626,54.611,43.358,54.611V514.684z"/>
		<path d="M380.786,466.451v42.212c-9.222,3.894-19.091,6.032-29.098,6.307c-30.101,0-49.094-23.364-49.094-53.464
			c0-27.881,18.993-52.318,49.668-52.318c8.874,0.049,17.522,2.799,24.797,7.883l-5.661,12.112
			c-5.664-3.386-12.111-5.237-18.707-5.374c-18.705,0-31.391,14.764-31.391,37.984s14.334,38.558,29.671,38.558
			c4.229,0.183,8.438-0.68,12.256-2.509v-31.391H380.786L380.786,466.451z"/>
		<path d="M414.398,424.666h7.741c8.153-0.807,15.417,5.148,16.225,13.303c0.105,1.059,0.096,2.126-0.027,3.182
			c1.29,9.852-5.652,18.883-15.503,20.172c-0.373,0.048-0.748,0.086-1.125,0.111l-7.167,0.43v-37.269L414.398,424.666z
			 M458.834,513.18l-20.283-42.357c11.024-6.12,17.817-17.779,17.703-30.388c0-19.853-12.113-29.527-31.678-29.527h-27.306V513.18
			h17.559v-38.56h7.884l16.482,38.56h19.998H458.834z"/>
		<path d="M487.717,472.758c4.085-13.402,8.17-25.873,11.826-41.641l0,0c4.085,15.768,7.739,28.166,11.537,41.641h-23.649H487.717z
			 M494.453,410.836l-35.332,102.271h15.266l8.887-27.881h30.816l8.027,27.881h19.566l-32.609-102.271h-14.333H494.453z"/>
		<path d="M574.723,410.836h-27.306v102.271h17.559V474.62h7.885c18.444,0.124,33.497-14.728,33.62-33.173
			c0.004-0.338,0-0.676-0.008-1.013C606.186,420.581,594.073,410.836,574.723,410.836z M572.214,461.361l-7.167,0.43v-37.195h7.884
			c8.161-0.727,15.367,5.299,16.095,13.459c0.09,1.008,0.075,2.021-0.041,3.024c1.32,9.888-5.625,18.972-15.513,20.291
			c-0.488,0.065-0.979,0.11-1.472,0.136L572.214,461.361z"/>
		<path d="M687.458,513.18h-17.559v-49.237h-36.408v49.237h-17.415V410.836h17.415v39.273h36.408v-38.988h17.559v101.986V513.18z"/>
		<path d="M704.23,513.18V410.836h17.415v102.271H704.23V513.18z"/>
		<path d="M800.481,429.47c-5.403-3.417-11.604-5.368-17.989-5.661c-17.847,0-30.818,14.762-30.818,37.982
			s14.335,38.559,31.249,38.559c6.214-0.016,12.299-1.778,17.559-5.088l4.802,12.686c-6.887,4.468-14.871,6.947-23.077,7.166
			c-30.102,0-49.093-23.364-49.093-53.466c0-27.878,18.848-52.317,49.379-52.317c8.439,0.262,16.615,3.004,23.508,7.884
			L800.481,429.47z"/>
	</g>
</g>
</svg>
