<?xml version="1.0" encoding="UTF-8"?>
<svg width="74px" height="15px" viewBox="0 0 74 15" version="1.1" xmlns="http://www.w3.org/2000/svg" xmlns:xlink="http://www.w3.org/1999/xlink">
    <!-- Generator: Sketch 50 (54983) - http://www.bohemiancoding.com/sketch -->
    <title>Group 2</title>
    <desc>Created with Sketch.</desc>
    <defs></defs>
    <g id="Page-1" stroke="none" stroke-width="1" fill="none" fill-rule="evenodd">
        <g id="3" transform="translate(-373.000000, -279.000000)" fill="#9AA0A7">
            <g id="Group" transform="translate(326.000000, 253.000000)">
                <g id="card" transform="translate(16.000000, 0.000000)">
                    <g id="Group-2" transform="translate(31.000000, 26.000000)">
                        <path d="M22.2617188,6.38867188 L19.5830078,12 L17.418457,12 L16.9677734,2.84033203 L19.3481445,2.84033203 L19.3100586,8.91503906 L19.4243164,8.91503906 L22.1855469,2.84033203 L24.0200195,2.84033203 L24.2739258,8.91503906 L24.3881836,8.91503906 L26.8891602,2.84033203 L29.2822266,2.84033203 L24.953125,12 L22.7250977,12 L22.3759766,6.38867188 L22.2617188,6.38867188 Z M28.6698047,12 L30.1678516,4.93505859 L32.4149219,4.93505859 L30.9105273,12 L28.6698047,12 Z M31.6849414,4.11621094 C30.8914844,4.11621094 30.4154102,3.70996094 30.4154102,3.15771484 C30.4154102,2.56738281 30.8914844,2.11669922 31.6849414,2.11669922 C32.4783984,2.11669922 32.948125,2.52294922 32.948125,3.07519531 C32.948125,3.66552734 32.4783984,4.11621094 31.6849414,4.11621094 Z M35.9221289,7.48046875 L38.4358008,4.93505859 L40.9685156,4.93505859 L37.7375586,8.0390625 L39.6989844,12 L37.2551367,12 L35.9221289,9.24511719 L35.2873633,9.84179688 L34.8366797,12 L32.5896094,12 L34.6525977,2.28808594 L36.8933203,2.28808594 L35.8015234,7.48046875 L35.9221289,7.48046875 Z M40.5846094,12 L42.0826562,4.93505859 L44.3297266,4.93505859 L42.825332,12 L40.5846094,12 Z M43.5997461,4.11621094 C42.8062891,4.11621094 42.3302148,3.70996094 42.3302148,3.15771484 C42.3302148,2.56738281 42.8062891,2.11669922 43.5997461,2.11669922 C44.3932031,2.11669922 44.8629297,2.52294922 44.8629297,3.07519531 C44.8629297,3.66552734 44.3932031,4.11621094 43.5997461,4.11621094 Z M47.0244336,12 L44.6948438,12 L46.6435742,2.84033203 L52.870625,2.84033203 L52.4707227,4.71289062 L48.5732617,4.71289062 L48.1289258,6.80126953 L51.670918,6.80126953 L51.2900586,8.58496094 L47.7480664,8.58496094 L47.0244336,12 Z M55.4574219,10.5463867 C56.1175781,10.5463867 56.6952148,10.1147461 56.822168,9.53710938 L56.9364258,9.01025391 L55.6859375,9.04833984 C54.9876953,9.07373047 54.549707,9.38476562 54.549707,9.86083984 C54.549707,10.2670898 54.9242187,10.5463867 55.4574219,10.5463867 Z M54.4481445,12.1079102 C53.2611328,12.1079102 52.3724609,11.2827148 52.3724609,10.1845703 C52.3724609,8.73730469 53.5785156,7.8359375 55.5780273,7.77880859 L57.209375,7.734375 L57.2982422,7.30908203 C57.3172852,7.19482422 57.3299805,7.14404297 57.3299805,7.08691406 C57.3299805,6.68066406 56.9364258,6.42041016 56.3333984,6.42041016 C55.8128906,6.42041016 55.4383789,6.61083984 55.2733398,6.94726562 L53.2166992,6.94726562 C53.5086914,5.62060547 54.790918,4.77001953 56.4920898,4.77001953 C58.3011719,4.77001953 59.5262695,5.62060547 59.5262695,6.89013672 C59.5262695,7.06787109 59.5008789,7.30908203 59.4691406,7.46142578 L58.4979492,12 L56.3207031,12 L56.4984375,11.1494141 L56.377832,11.1494141 C56.0160156,11.7333984 55.2542969,12.1079102 54.4481445,12.1079102 Z M67.457793,7.47412109 L65.3694141,7.47412109 C65.3567187,6.83935547 64.8996875,6.50292969 64.2966602,6.50292969 C63.2937305,6.50292969 62.6526172,7.62011719 62.6526172,9.0546875 C62.6526172,10.0322266 63.1985156,10.4321289 63.763457,10.4321289 C64.3791797,10.4321289 64.8362109,10.1020508 65.0266406,9.46728516 L67.1277148,9.46728516 C66.9182422,10.9399414 65.6614062,12.1650391 63.6428516,12.1650391 C61.6687305,12.1650391 60.4372852,11.003418 60.4372852,9.18798828 C60.4372852,6.66796875 62.0115039,4.77001953 64.4363086,4.77001953 C66.3279102,4.77001953 67.4070117,6.01416016 67.457793,7.20751953 C67.457793,7.29003906 67.4641406,7.38525391 67.457793,7.47412109 Z M70.945957,12.0126953 C69.6319922,12.0126953 68.7750586,11.4414062 68.7750586,10.4829102 C68.7750586,10.3051758 68.8004492,10.0830078 68.8448828,9.87353516 L69.5113867,6.69970703 L68.4005469,6.69970703 L68.7687109,5.03027344 L69.8668555,5.03027344 L70.2350195,3.31640625 L72.4884375,3.31640625 L72.1202734,5.03027344 L73.5802344,5.03027344 L73.2120703,6.69970703 L71.7648047,6.69970703 L71.168125,9.49902344 C71.149082,9.61962891 71.1300391,9.74023438 71.1300391,9.82275391 C71.1300391,10.2163086 71.3775977,10.394043 71.8600195,10.394043 C72.0694922,10.394043 72.2916602,10.375 72.4503516,10.355957 L72.1139258,11.9238281 C71.8981055,11.980957 71.4601172,12.0126953 70.945957,12.0126953 Z" id="WikiFact"></path>
                        <polygon id="Shape-Copy" fill-rule="nonzero" points="6 0 0 8.99999 4.73684211 8.99999 4 14.99999 10 5.99999 5.26315789 5.99999"></polygon>
                    </g>
                </g>
            </g>
        </g>
    </g>
</svg>